<svg width="142" height="60" viewBox="0 0 142 60" fill="none" xmlns="http://www.w3.org/2000/svg">
<path fill-rule="evenodd" clip-rule="evenodd" d="M47.1665 4.85992H54.914V60.0002H47.1665V4.85992Z" fill="#FFCC00"/>
<path fill-rule="evenodd" clip-rule="evenodd" d="M10.528 41.9185L5.5918 43.9823L18.4643 51.2229V45.6404L10.528 41.9185Z" fill="#006EB6"/>
<path fill-rule="evenodd" clip-rule="evenodd" d="M29.474 38.5186L23.9985 35.4392L29.0512 32.3386L34.5267 35.5589L29.474 38.5186Z" fill="#006EB6"/>
<path fill-rule="evenodd" clip-rule="evenodd" d="M34.5268 35.5588L29.4741 38.5186V43.9093L34.5268 40.8087V35.5588Z" fill="#20154D"/>
<path fill-rule="evenodd" clip-rule="evenodd" d="M29.0512 24.7758L23.9985 21.934V35.4391L29.0512 32.3385V24.7758Z" fill="#20154D"/>
<path fill-rule="evenodd" clip-rule="evenodd" d="M39.4199 19.2663L34.3672 22.4311V27.7646L39.4199 24.5161V19.2663Z" fill="#20154D"/>
<path fill-rule="evenodd" clip-rule="evenodd" d="M5.59204 6.2461L0 3.1006L5.05361 0L10.5282 3.07948L5.59204 6.2461Z" fill="#006EB6"/>
<path fill-rule="evenodd" clip-rule="evenodd" d="M20.9555 8.94452L15.9028 12.0451V47.2845L20.9555 44.036V8.94452Z" fill="#FFED00"/>
<path fill-rule="evenodd" clip-rule="evenodd" d="M29.0512 43.6786L23.9985 40.8306V59.7264L29.0512 56.6258V43.6786Z" fill="#20154D"/>
<path fill-rule="evenodd" clip-rule="evenodd" d="M5.5918 6.24614L10.528 3.07953V41.9185L5.5918 43.9823V6.24614Z" fill="#20154D"/>
<path fill-rule="evenodd" clip-rule="evenodd" d="M8.15479 7.68768L15.9023 12.0451V47.2844L8.15479 42.927V7.68768Z" fill="#FFCC00"/>
<path fill-rule="evenodd" clip-rule="evenodd" d="M15.9023 12.0451L8.15479 7.6877L13.2084 4.5871L20.9541 8.94449L15.9023 12.0451Z" fill="#FFED00"/>
<path fill-rule="evenodd" clip-rule="evenodd" d="M5.59204 43.9823V6.24608L0 3.10059V46.2283L10.7468 52.2729L15.9025 55.1719L18.4646 56.6135L22.6356 58.959L23.9988 59.7265V40.8297L29.4743 43.9101V38.5186L23.9988 35.4391V21.933L34.3671 27.7655V22.4312L18.4646 13.4867V51.2229L15.9025 49.7813L10.7468 46.8822L5.59204 43.9823Z" fill="#20347B"/>
<path fill-rule="evenodd" clip-rule="evenodd" d="M34.3674 22.4312L18.4648 13.4867L23.5185 10.3861L39.4201 19.2875L34.3674 22.4312Z" fill="#006EB6"/>
<path d="M66.0565 26.9636V4.86084H62.7812V30.121H72.0952V26.9636H66.0565ZM76.8376 4.86084H73.5964V30.121H76.8376V4.86084ZM87.2088 30.121L88.8125 28.5588V17.4578H83.9679L84.002 20.6486H85.5712V26.5647L85.196 26.9302H82.7397L82.3643 26.5647V8.3508L82.7397 7.98507H85.196L85.5712 8.3508V11.1427H88.8124V6.42311L87.2088 4.86084H80.6926L79.089 6.42311V28.5588L80.6926 30.121L87.2088 30.121ZM91.0639 30.121H94.3051V19.0864H97.5121V30.121H100.787V4.86084H97.5121V15.9287H94.3051V4.86084H91.0639V30.121ZM102.22 4.86084V8.05168H105.802V30.121H109.043V8.05168H112.66V4.86084H102.22ZM117.3 4.86084H114.059V30.121H117.3V4.86084ZM122.792 15.2973L126.784 30.121H130.025V4.86084H126.784V19.6846L122.792 4.86084H119.551V30.121H122.792V15.2973L122.792 15.2973ZM140.396 30.121L142 28.5588V17.4578H137.155L137.19 20.6486H138.759V26.5647L138.384 26.9302H135.927L135.552 26.5647V8.3508L135.927 7.98507H138.384L138.759 8.3508V11.1427H142V6.42311L140.396 4.86084H133.88L132.277 6.42311V28.5588L133.88 30.121L140.396 30.121ZM62.7812 59.7261H66.0225V48.6583H69.2294V45.5006H66.0225V37.5901H72.0952V34.4659H62.7812V59.7261ZM78.7479 34.4659H75.541L71.0717 59.7261H74.2785L75.3705 53.4111H78.9185L80.0785 59.7261H83.2855L78.7479 34.4659L78.7479 34.4659ZM77.1444 43.1408L78.3726 50.2202H75.9162L77.1444 43.1408H77.1444ZM92.7356 59.7261L94.3392 58.1639V53.4111H91.098V56.1698L90.7228 56.5353H88.2322L87.857 56.1698V37.9559L88.2322 37.5902H90.7228L91.098 37.9559V40.7478H94.3392V36.0282L92.7356 34.4659H86.2194L84.6158 36.0282V58.1639L86.2194 59.7261L92.7356 59.7261ZM95.4993 34.4659V37.6568H99.0816V59.7261H102.323V37.6568H105.939V34.4659H95.4993ZM108.941 34.4659L107.338 36.0282V58.1639L108.941 59.7261H115.457L117.061 58.1639V36.0282L115.457 34.4659H108.941ZM113.786 56.203L113.411 56.5687H110.954L110.579 56.203V38.0223L110.954 37.6568H113.411L113.786 38.0223V56.203V56.203ZM122.554 48.6914H124.157L125.795 59.7261H129.036L127.432 48.6914L129.036 47.096V36.0282L127.432 34.4659H119.313V59.7261H122.554V48.6914L122.554 48.6914ZM122.554 37.6568H125.42L125.795 38.0222V45.1683L125.42 45.5338H122.554V37.6568ZM141.966 34.4659H138.35L135.927 43.5397L133.471 34.4659H129.889L134.324 48.7912V59.7261H137.531V48.7912L141.966 34.4659H141.966Z" fill="#20347B"/>
</svg>
