<svg width="32" height="32" viewBox="0 0 32 32" fill="none" xmlns="http://www.w3.org/2000/svg">
<path d="M10.6909 22.9333H9.62183C9.32662 22.9333 9.08728 23.1721 9.08728 23.4667C9.08728 23.7612 9.32662 24 9.62183 24H10.6909C10.9861 24 11.2255 23.7612 11.2255 23.4667C11.2255 23.1721 10.9861 22.9333 10.6909 22.9333Z" fill="#28344D"/>
<path d="M25.6583 22.9333H12.8292C12.534 22.9333 12.2947 23.1721 12.2947 23.4667C12.2947 23.7612 12.534 24 12.8292 24H25.6583C25.9536 24 26.1929 23.7612 26.1929 23.4667C26.1929 23.1721 25.9536 22.9333 25.6583 22.9333Z" fill="#28344D"/>
<path d="M10.6909 19.7333H9.62183C9.32662 19.7333 9.08728 19.9721 9.08728 20.2667C9.08728 20.5612 9.32662 20.8 9.62183 20.8H10.6909C10.9861 20.8 11.2255 20.5612 11.2255 20.2667C11.2255 19.9721 10.9861 19.7333 10.6909 19.7333Z" fill="#28344D"/>
<path d="M25.6583 19.7333H12.8292C12.534 19.7333 12.2947 19.9721 12.2947 20.2667C12.2947 20.5612 12.534 20.8 12.8292 20.8H25.6583C25.9536 20.8 26.1929 20.5612 26.1929 20.2667C26.1929 19.9721 25.9536 19.7333 25.6583 19.7333Z" fill="#28344D"/>
<path d="M10.6909 16.5333H9.62183C9.32662 16.5333 9.08728 16.7721 9.08728 17.0667C9.08728 17.3612 9.32662 17.6 9.62183 17.6H10.6909C10.9861 17.6 11.2255 17.3612 11.2255 17.0667C11.2255 16.7721 10.9861 16.5333 10.6909 16.5333Z" fill="#28344D"/>
<path d="M25.6583 16.5333H12.8292C12.534 16.5333 12.2947 16.7721 12.2947 17.0667C12.2947 17.3612 12.534 17.6 12.8292 17.6H25.6583C25.9536 17.6 26.1929 17.3612 26.1929 17.0667C26.1929 16.7721 25.9536 16.5333 25.6583 16.5333Z" fill="#28344D"/>
<path d="M10.6909 13.3333H9.62183C9.32662 13.3333 9.08728 13.5721 9.08728 13.8667C9.08728 14.1612 9.32662 14.4 9.62183 14.4H10.6909C10.9861 14.4 11.2255 14.1612 11.2255 13.8667C11.2255 13.5721 10.9861 13.3333 10.6909 13.3333Z" fill="#28344D"/>
<path d="M25.6583 13.3333H12.8292C12.534 13.3333 12.2947 13.5721 12.2947 13.8667C12.2947 14.1612 12.534 14.4 12.8292 14.4H25.6583C25.9536 14.4 26.1929 14.1612 26.1929 13.8667C26.1929 13.5721 25.9536 13.3333 25.6583 13.3333Z" fill="#28344D"/>
<path d="M10.6909 10.1333H9.62183C9.32662 10.1333 9.08728 10.3721 9.08728 10.6667C9.08728 10.9612 9.32662 11.2 9.62183 11.2H10.6909C10.9861 11.2 11.2255 10.9612 11.2255 10.6667C11.2255 10.3721 10.9861 10.1333 10.6909 10.1333Z" fill="#28344D"/>
<path d="M25.6583 10.1333H12.8292C12.534 10.1333 12.2947 10.3721 12.2947 10.6667C12.2947 10.9612 12.534 11.2 12.8292 11.2H25.6583C25.9536 11.2 26.1929 10.9612 26.1929 10.6667C26.1929 10.3721 25.9536 10.1333 25.6583 10.1333Z" fill="#28344D"/>
<path d="M29.3931 7.9664C29.3904 7.91967 29.3813 7.87353 29.3659 7.82933C29.36 7.81227 29.3557 7.79573 29.3482 7.7792C29.3222 7.7212 29.286 7.66827 29.2413 7.62293L21.7577 0.156267C21.7122 0.111667 21.6592 0.0755333 21.601 0.0496C21.5845 0.0421333 21.5679 0.0378667 21.5513 0.032C21.5066 0.0166667 21.46 0.00733333 21.4129 0.00426667C21.4038 0.00586667 21.3936 0 21.3819 0H6.41456C6.11935 0 5.88001 0.2388 5.88001 0.533333V2.13333H3.20728C2.91207 2.13333 2.67273 2.37213 2.67273 2.66667V31.4667C2.67273 31.7612 2.91207 32 3.20728 32H25.6582C25.9534 32 26.1928 31.7612 26.1928 31.4667V28.8H28.8655C29.1607 28.8 29.4001 28.5612 29.4001 28.2667V8C29.4001 7.98827 29.3942 7.97813 29.3931 7.9664ZM21.9164 1.8208L27.5751 7.46667H21.9164V1.8208ZM25.1237 30.9333H3.74182V3.2H5.88001V28.2667C5.88001 28.5612 6.11935 28.8 6.41456 28.8H25.1237V30.9333ZM28.331 27.7333H6.9491V1.06667H20.8473V8C20.8473 8.29453 21.0867 8.53333 21.3819 8.53333H28.331V27.7333Z" fill="#28344D"/>
<path d="M12.8291 4.8H9.62183C9.32662 4.8 9.08728 5.0388 9.08728 5.33333V8.53333C9.08728 8.82787 9.32662 9.06667 9.62183 9.06667H12.8291C13.1243 9.06667 13.3637 8.82787 13.3637 8.53333V5.33333C13.3637 5.0388 13.1243 4.8 12.8291 4.8ZM12.2946 8H10.1564V5.86667H12.2946V8Z" fill="#28344D"/>
</svg>
