<svg width="32" height="32" viewBox="0 0 32 32" fill="none" xmlns="http://www.w3.org/2000/svg">
<path d="M13.9866 7.93701H13.9022C12.3119 7.93701 11.0181 9.23089 11.0181 10.8212C11.0181 12.4115 12.3119 13.7054 13.9022 13.7054H13.9866C15.5769 13.7054 16.8707 12.4115 16.8707 10.8212C16.8707 9.23089 15.5769 7.93701 13.9866 7.93701ZM13.9866 12.4554H13.9022C13.0011 12.4554 12.2681 11.7224 12.2681 10.8213C12.2681 9.92014 13.0011 9.18707 13.9022 9.18707H13.9866C14.8877 9.18707 15.6207 9.92014 15.6207 10.8213C15.6207 11.7224 14.8877 12.4554 13.9866 12.4554Z" fill="#28344D"/>
<path d="M16.2458 14.8237H11.6431C11.2979 14.8237 11.0181 15.1036 11.0181 15.4487V26.8625C11.0181 27.2076 11.2979 27.4875 11.6431 27.4875H16.2458C16.591 27.4875 16.8708 27.2076 16.8708 26.8625V15.4487C16.8708 15.1035 16.591 14.8237 16.2458 14.8237ZM15.6208 26.2375H12.2681V16.0737H15.6208V26.2375Z" fill="#28344D"/>
<path d="M13.9137 3.76965C10.197 3.76965 6.70275 5.22009 4.07475 7.85384C1.44712 10.4872 0 13.9883 0 17.7122C0 21.6151 1.63488 25.3374 4.49613 27.9756L4.27294 30.536C4.25456 30.7464 4.34381 30.9518 4.51006 31.0822C4.67638 31.2125 4.89706 31.25 5.09719 31.1818L7.82506 30.2524C9.72831 31.1831 11.7754 31.6548 13.9138 31.6548C17.6306 31.6548 21.1248 30.2043 23.7528 27.5706C26.3804 24.9372 27.8275 21.4362 27.8275 17.7122C27.8275 13.9883 26.3804 10.4872 23.7528 7.85384C21.1247 5.22009 17.6305 3.76965 13.9137 3.76965ZM13.9137 30.4048C11.8857 30.4048 9.9485 29.939 8.15606 29.0203C8.06694 28.9747 7.96919 28.9515 7.87094 28.9515C7.803 28.9515 7.73488 28.9625 7.66931 28.9848L5.60138 29.6894L5.76837 27.774C5.78562 27.5762 5.70781 27.382 5.55881 27.2507C2.8205 24.8393 1.25 21.3627 1.25 17.7122C1.25 10.7135 6.93094 5.01965 13.9137 5.01965C20.8966 5.01965 26.5774 10.7135 26.5774 17.7122C26.5774 24.7109 20.8966 30.4048 13.9137 30.4048Z" fill="#28344D"/>
<path d="M24.3452 0.345093C24.0001 0.345093 23.7202 0.624968 23.7202 0.970093C23.7202 1.31522 24.0001 1.59509 24.3452 1.59509C27.8769 1.59509 30.7502 4.47522 30.7502 8.01541C30.7502 8.36053 31.03 8.64041 31.3752 8.64041C31.7203 8.64041 32.0002 8.36053 32.0002 8.01541C32.0002 3.78597 28.5662 0.345093 24.3452 0.345093Z" fill="#28344D"/>
<path d="M25.0024 3.50745C24.6573 3.50745 24.3774 3.78732 24.3774 4.13245C24.3774 4.47757 24.6573 4.75745 25.0024 4.75745C26.4316 4.75745 27.5944 5.92332 27.5944 7.35638C27.5944 7.70151 27.8743 7.98138 28.2194 7.98138C28.5645 7.98138 28.8444 7.70151 28.8444 7.35638C28.8444 5.23407 27.1209 3.50745 25.0024 3.50745Z" fill="#28344D"/>
</svg>
