<svg width="109" height="47" viewBox="0 0 109 47" fill="none" xmlns="http://www.w3.org/2000/svg">
<g clip-path="url(#clip0)">
<path fill-rule="evenodd" clip-rule="evenodd" d="M36.2051 3.80695H42.1521V47.0001H36.2051V3.80695Z" fill="#FFCC00"/>
<path fill-rule="evenodd" clip-rule="evenodd" d="M8.08151 32.8361L4.29248 34.4528L14.1735 40.1246V35.7517L8.08151 32.8361Z" fill="#006EB6"/>
<path fill-rule="evenodd" clip-rule="evenodd" d="M22.6244 30.1729L18.4214 27.7607L22.2999 25.3318L26.5029 27.8544L22.6244 30.1729Z" fill="#006EB6"/>
<path fill-rule="evenodd" clip-rule="evenodd" d="M26.503 27.8544L22.6245 30.1729V34.3956L26.503 31.9668V27.8544Z" fill="#20154D"/>
<path fill-rule="evenodd" clip-rule="evenodd" d="M22.2999 19.4077L18.4214 17.1816V27.7606L22.2999 25.3318V19.4077Z" fill="#20154D"/>
<path fill-rule="evenodd" clip-rule="evenodd" d="M30.2589 15.0919L26.3804 17.5711V21.7489L30.2589 19.2043V15.0919Z" fill="#20154D"/>
<path fill-rule="evenodd" clip-rule="evenodd" d="M4.29248 4.89277L0 2.42881L3.87918 0L8.08151 2.41226L4.29248 4.89277Z" fill="#006EB6"/>
<path fill-rule="evenodd" clip-rule="evenodd" d="M16.0855 7.00653L12.207 9.43534V37.0395L16.0855 34.4949V7.00653Z" fill="#FFED00"/>
<path fill-rule="evenodd" clip-rule="evenodd" d="M22.2999 34.215L18.4214 31.984V46.7857L22.2999 44.3569V34.215Z" fill="#20154D"/>
<path fill-rule="evenodd" clip-rule="evenodd" d="M4.29248 4.89281L8.08151 2.41229V32.8361L4.29248 34.4528V4.89281Z" fill="#20154D"/>
<path fill-rule="evenodd" clip-rule="evenodd" d="M6.25977 6.02203L12.2068 9.43532V37.0395L6.25977 33.6262V6.02203Z" fill="#FFCC00"/>
<path fill-rule="evenodd" clip-rule="evenodd" d="M12.2068 9.43536L6.25977 6.02207L10.1389 3.59326L16.0846 7.00655L12.2068 9.43536Z" fill="#FFED00"/>
<path fill-rule="evenodd" clip-rule="evenodd" d="M4.29248 34.4528V4.8928L0 2.42883V36.2122L8.24933 40.9471L12.2069 43.218L14.1735 44.3473L17.3752 46.1846L18.4216 46.7858V31.9833L22.6246 34.3963V30.1729L18.4216 27.7607V17.1809L26.3804 21.7497V17.5711L14.1735 10.5646V40.1246L12.2069 38.9954L8.24933 36.7245L4.29248 34.4528Z" fill="#20347B"/>
<path fill-rule="evenodd" clip-rule="evenodd" d="M26.3807 17.5711L14.1738 10.5646L18.053 8.1358L30.2592 15.1085L26.3807 17.5711Z" fill="#006EB6"/>
<path d="M50.7055 21.1215V3.80768H48.1914V23.5948H55.3408V21.1215H50.7055ZM58.9811 3.80768H56.4931V23.5948H58.9811V3.80768ZM66.9422 23.5948L68.1731 22.3711V13.6753H64.4544L64.4806 16.1747H65.6851V20.809L65.3971 21.0953H63.5116L63.2234 20.809V6.54148L63.5116 6.25499H65.3971L65.6851 6.54148V8.72847H68.1731V5.03146L66.9422 3.80768H61.9403L60.7093 5.03146V22.3711L61.9403 23.5948L66.9422 23.5948ZM69.9013 23.5948H72.3893V14.951H74.851V23.5948H77.3651V3.80768H74.851V12.4775H72.3893V3.80768H69.9013V23.5948ZM78.4649 3.80768V6.30717H81.2147V23.5948H83.7025V6.30717H86.4784V3.80768H78.4649ZM90.0401 3.80768H87.5521V23.5948H90.0401V3.80768ZM94.2563 11.9829L97.3202 23.5948H99.8082V3.80768H97.3202V15.4196L94.2563 3.80768H91.7683V23.5948H94.2563V11.9829L94.2563 11.9829ZM107.769 23.5948L109 22.3711V13.6753H105.281L105.308 16.1747H106.512V20.809L106.224 21.0953H104.339L104.051 20.809V6.54148L104.339 6.25499H106.224L106.512 6.54148V8.72847H109V5.03146L107.769 3.80768H102.767L101.536 5.03146V22.3711L102.767 23.5948L107.769 23.5948ZM48.1914 46.7855H50.6794V38.1157H53.141V35.6422H50.6794V29.4456H55.3408V26.9983H48.1914V46.7855ZM60.4475 26.9983H57.9859L54.5552 46.7855H57.0168L57.855 41.8387H60.5784L61.4689 46.7855H63.9306L60.4475 26.9983L60.4475 26.9983ZM59.2166 33.7936L60.1594 39.3392H58.2739L59.2166 33.7936H59.2166ZM71.1845 46.7855L72.4155 45.5617V41.8387H69.9275V43.9997L69.6395 44.286H67.7277L67.4397 43.9997V29.7321L67.7277 29.4457H69.6395L69.9275 29.7321V31.9191H72.4155V28.2221L71.1845 26.9983H66.1827L64.9517 28.2221V45.5617L66.1827 46.7855L71.1845 46.7855ZM73.3059 26.9983V29.4978H76.0557V46.7855H78.5435V29.4978H81.3195V26.9983H73.3059ZM83.6241 26.9983L82.3932 28.2221V45.5617L83.6241 46.7855H88.6259L89.8569 45.5617V28.2221L88.6259 26.9983H83.6241ZM87.3428 44.0257L87.0548 44.3122H85.1691L84.8811 44.0257V29.7841L85.1691 29.4979H87.0548L87.3428 29.7841V44.0257V44.0257ZM94.0731 38.1416H95.304L96.5609 46.7855H99.0489L97.818 38.1416L99.0489 36.8919V28.2221L97.818 26.9983H91.5851V46.7855H94.0731V38.1416L94.0731 38.1416ZM94.0731 29.4978H96.2729L96.5609 29.7841V35.3819L96.2729 35.6681H94.0731V29.4978ZM108.974 26.9983H106.198L104.339 34.1061L102.453 26.9983H99.7034L103.108 38.2198V46.7855H105.57V38.2198L108.974 26.9983H108.974Z" fill="#20347B"/>
</g>
<defs>
<clipPath id="clip0">
<rect width="109" height="47" fill="white"/>
</clipPath>
</defs>
</svg>
