<svg width="161" height="69" viewBox="0 0 161 69" fill="none" xmlns="http://www.w3.org/2000/svg">
<g clip-path="url(#clip0)">
<path fill-rule="evenodd" clip-rule="evenodd" d="M53.4775 5.58887H62.2617V69.0001H53.4775V5.58887Z" fill="#FFCC00"/>
<path fill-rule="evenodd" clip-rule="evenodd" d="M11.937 48.2062L6.34033 50.5797L20.9352 58.9064V52.4865L11.937 48.2062Z" fill="#006EB6"/>
<path fill-rule="evenodd" clip-rule="evenodd" d="M33.4181 44.2965L27.21 40.7551L32.9387 37.1894L39.1469 40.8927L33.4181 44.2965Z" fill="#006EB6"/>
<path fill-rule="evenodd" clip-rule="evenodd" d="M39.1467 40.8926L33.418 44.2964V50.4956L39.1467 46.9299V40.8926Z" fill="#20154D"/>
<path fill-rule="evenodd" clip-rule="evenodd" d="M32.9387 28.4922L27.21 25.2241V40.755L32.9387 37.1893V28.4922Z" fill="#20154D"/>
<path fill-rule="evenodd" clip-rule="evenodd" d="M44.6941 22.1562L38.9653 25.7958V31.9293L44.6941 28.1935V22.1562Z" fill="#20154D"/>
<path fill-rule="evenodd" clip-rule="evenodd" d="M6.34027 7.18301L0 3.5657L5.7298 0L11.9369 3.5414L6.34027 7.18301Z" fill="#006EB6"/>
<path fill-rule="evenodd" clip-rule="evenodd" d="M23.759 10.2862L18.0303 13.8519V54.3771L23.759 50.6414V10.2862Z" fill="#FFED00"/>
<path fill-rule="evenodd" clip-rule="evenodd" d="M32.9387 50.2305L27.21 46.9553V68.6854L32.9387 65.1198V50.2305Z" fill="#20154D"/>
<path fill-rule="evenodd" clip-rule="evenodd" d="M6.34033 7.18305L11.937 3.54144V48.2063L6.34033 50.5797V7.18305Z" fill="#20154D"/>
<path fill-rule="evenodd" clip-rule="evenodd" d="M9.24609 8.84082L18.0303 13.8518V54.3771L9.24609 49.3661V8.84082Z" fill="#FFCC00"/>
<path fill-rule="evenodd" clip-rule="evenodd" d="M18.0303 13.8518L9.24609 8.84084L14.9759 5.27515L23.758 10.2861L18.0303 13.8518Z" fill="#FFED00"/>
<path fill-rule="evenodd" clip-rule="evenodd" d="M6.34027 50.5796V7.18299L0 3.56567V53.1626L12.1848 60.1138L18.0303 63.4477L20.9352 65.1056L25.6643 67.8029L27.2099 68.6854V46.9542L33.418 50.4966V44.2964L27.2099 40.755V25.223L38.9655 31.9303V25.7959L20.9352 15.5097V58.9063L18.0303 57.2485L12.1848 53.9146L6.34027 50.5796Z" fill="#20347B"/>
<path fill-rule="evenodd" clip-rule="evenodd" d="M38.9654 25.796L20.9351 15.5098L26.6649 11.9441L44.6942 22.1807L38.9654 25.796Z" fill="#006EB6"/>
<path d="M74.8952 31.0082V5.58997H71.1816V34.6392H81.7418V31.0082H74.8952ZM87.1187 5.58997H83.4438V34.6392H87.1187V5.58997ZM98.8777 34.6392L100.696 32.8426V20.0764H95.2031L95.2418 23.7459H97.0209V30.5494L96.5956 30.9697H93.8106L93.3849 30.5494V9.60342L93.8106 9.18283H96.5956L97.0209 9.60342V12.8141H100.696V7.38658L98.8777 5.58997H91.4896L89.6714 7.38658V32.8426L91.4896 34.6392L98.8777 34.6392ZM103.249 34.6392H106.924V21.9493H110.56V34.6392H114.273V5.58997H110.56V18.318H106.924V5.58997H103.249V34.6392ZM115.898 5.58997V9.25943H119.959V34.6392H123.634V9.25943H127.734V5.58997H115.898ZM132.995 5.58997H129.32V34.6392H132.995V5.58997ZM139.222 17.5919L143.748 34.6392H147.423V5.58997H143.748V22.6373L139.222 5.58997H135.548V34.6392H139.222V17.5919L139.222 17.5919ZM159.182 34.6392L161 32.8426V20.0764H155.507L155.546 23.7459H157.325V30.5494L156.9 30.9697H154.115L153.689 30.5494V9.60342L154.115 9.18283H156.9L157.325 9.60342V12.8141H161V7.38658L159.182 5.58997H151.794L149.976 7.38658V32.8426L151.794 34.6392L159.182 34.6392ZM71.1816 68.685H74.8566V55.957H78.4926V52.3257H74.8566V43.2287H81.7418V39.6358H71.1816V68.685ZM89.2847 39.6358H85.6487L80.5813 68.685H84.2173L85.4554 61.4227H89.4781L90.7934 68.685H94.4294L89.2847 39.6358L89.2847 39.6358ZM87.4666 49.6119L88.8591 57.7533H86.0741L87.4666 49.6119H87.4666ZM105.144 68.685L106.962 66.8885V61.4227H103.287V64.5953L102.862 65.0156H100.038L99.6126 64.5953V43.6493L100.038 43.2287H102.862L103.287 43.6493V46.86H106.962V41.4324L105.144 39.6358H97.7559L95.9377 41.4324V66.8884L97.7559 68.685L105.144 68.685ZM108.277 39.6358V43.3053H112.339V68.685H116.014V43.3053H120.114V39.6358H108.277ZM123.518 39.6358L121.7 41.4324V66.8884L123.518 68.685H130.906L132.724 66.8884V41.4324L130.906 39.6358H123.518ZM129.011 64.6334L128.585 65.054H125.8L125.375 64.6334V43.7256L125.8 43.3053H128.585L129.011 43.7256V64.6335V64.6334ZM138.952 55.9951H140.77L142.627 68.685H146.301L144.483 55.9952L146.301 54.1604V41.4324L144.483 39.6358H135.277V68.685H138.952V55.9952L138.952 55.9951ZM138.952 43.3053H142.201L142.626 43.7256V51.9435L142.201 52.3638H138.952V43.3053ZM160.962 39.6358H156.861L154.115 50.0707L151.33 39.6358H147.268L152.297 56.1099V68.685H155.933V56.1099L160.962 39.6358H160.962Z" fill="#20347B"/>
</g>
<defs>
<clipPath id="clip0">
<rect width="161" height="69" fill="white"/>
</clipPath>
</defs>
</svg>
