<svg width="28" height="28" viewBox="0 0 28 28" fill="none" xmlns="http://www.w3.org/2000/svg">
<rect width="28" height="28" rx="5" fill="url(#paint0_linear)"/>
<path d="M17.7893 4.625H10.2107C7.13074 4.625 4.625 7.13074 4.625 10.2107V17.7893C4.625 20.8693 7.13074 23.375 10.2107 23.375H17.7893C20.8693 23.375 23.375 20.8693 23.375 17.7893V10.2107C23.375 7.13074 20.8692 4.625 17.7893 4.625ZM21.4888 17.7893C21.4888 19.8324 19.8324 21.4888 17.7893 21.4888H10.2107C8.16758 21.4888 6.51125 19.8324 6.51125 17.7893V10.2107C6.51125 8.16754 8.16758 6.51125 10.2107 6.51125H17.7893C19.8324 6.51125 21.4888 8.16754 21.4888 10.2107V17.7893Z" fill="white"/>
<path d="M14 9C11.243 9 9 11.243 9 14C9 16.757 11.243 19 14 19C16.757 19 19 16.757 19 14C19 11.243 16.757 9 14 9ZM14 17.0552C12.3127 17.0552 10.9448 15.6874 10.9448 14C10.9448 12.3127 12.3127 10.9448 14 10.9448C15.6873 10.9448 17.0552 12.3127 17.0552 14C17.0552 15.6873 15.6873 17.0552 14 17.0552Z" fill="white"/>
<path d="M19.3125 9.625C19.8303 9.625 20.25 9.20527 20.25 8.6875C20.25 8.16973 19.8303 7.75 19.3125 7.75C18.7947 7.75 18.375 8.16973 18.375 8.6875C18.375 9.20527 18.7947 9.625 19.3125 9.625Z" fill="white"/>
<defs>
<linearGradient id="paint0_linear" x1="28" y1="1.1358e-06" x2="-3.54449" y2="23.1755" gradientUnits="userSpaceOnUse">
<stop stop-color="#FBB75D"/>
<stop offset="1" stop-color="#CB5272"/>
</linearGradient>
</defs>
</svg>
