<svg width="28" height="28" viewBox="0 0 28 28" fill="none" xmlns="http://www.w3.org/2000/svg">
<rect width="28" height="28" rx="5" fill="#436EAB"/>
<path d="M23.8939 18.6963C23.8697 18.644 23.8471 18.6006 23.8262 18.5659C23.4792 17.94 22.8161 17.1717 21.8372 16.2608L21.8166 16.24L21.8062 16.2297L21.7957 16.2193H21.7852C21.341 15.7951 21.0597 15.5099 20.9419 15.3639C20.7263 15.0858 20.678 14.8043 20.7959 14.519C20.8791 14.3035 21.1917 13.8483 21.733 13.1529C22.0178 12.7844 22.2433 12.489 22.4098 12.2665C23.6109 10.6673 24.1316 9.64532 23.9719 9.20029L23.9098 9.09629C23.8681 9.03368 23.7606 8.9764 23.5872 8.92416C23.4134 8.87204 23.1914 8.86342 22.9206 8.89815L19.9216 8.9189C19.8731 8.90166 19.8037 8.90327 19.7133 8.92416C19.623 8.94506 19.5779 8.95554 19.5779 8.95554L19.5257 8.98166L19.4843 9.01304C19.4495 9.03379 19.4114 9.07028 19.3697 9.12244C19.3282 9.17442 19.2935 9.23543 19.2658 9.30494C18.9393 10.1462 18.5681 10.9284 18.1515 11.6515C17.8946 12.0826 17.6587 12.4563 17.4432 12.7727C17.2281 13.0889 17.0476 13.322 16.9019 13.4713C16.756 13.6208 16.6244 13.7406 16.5061 13.8311C16.388 13.9216 16.2979 13.9599 16.2355 13.9459C16.173 13.9319 16.1141 13.918 16.0583 13.9041C15.9612 13.8415 15.8831 13.7564 15.8241 13.6486C15.765 13.5408 15.7252 13.4052 15.7043 13.2418C15.6836 13.0783 15.6714 12.9377 15.6679 12.8194C15.6646 12.7013 15.6661 12.5343 15.6732 12.3188C15.6804 12.1031 15.6836 11.9572 15.6836 11.8807C15.6836 11.6165 15.6888 11.3297 15.6991 11.0203C15.7096 10.7109 15.7181 10.4658 15.7252 10.2852C15.7323 10.1044 15.7356 9.91311 15.7356 9.71147C15.7356 9.50983 15.7233 9.3517 15.6991 9.23692C15.6752 9.1223 15.6384 9.01103 15.59 8.90316C15.5413 8.7954 15.4701 8.71204 15.3766 8.65286C15.2829 8.59376 15.1664 8.54686 15.0277 8.51201C14.6598 8.42861 14.1912 8.3835 13.6218 8.37648C12.3307 8.3626 11.501 8.44611 11.1331 8.62689C10.9873 8.70327 10.8554 8.80764 10.7374 8.93965C10.6125 9.09267 10.595 9.17618 10.6853 9.18991C11.1018 9.25241 11.3968 9.40193 11.5703 9.63831L11.6329 9.76356C11.6815 9.85394 11.7301 10.0139 11.7787 10.2433C11.8273 10.4727 11.8586 10.7265 11.8724 11.0045C11.907 11.5121 11.907 11.9467 11.8724 12.3082C11.8376 12.6698 11.8048 12.9513 11.7735 13.153C11.7422 13.3546 11.6953 13.518 11.6329 13.6431C11.5703 13.7683 11.5287 13.8448 11.5079 13.8725C11.487 13.9003 11.4697 13.9178 11.4559 13.9247C11.3656 13.9593 11.2718 13.9769 11.1747 13.9769C11.0774 13.9769 10.9595 13.9282 10.8206 13.8308C10.6819 13.7334 10.5378 13.5997 10.3885 13.4293C10.2393 13.2589 10.0709 13.0207 9.88341 12.7149C9.69605 12.409 9.50165 12.0474 9.30032 11.6303L9.13375 11.3277C9.02962 11.1331 8.88738 10.8497 8.70688 10.4778C8.52627 10.1058 8.36663 9.74588 8.22785 9.39824C8.17237 9.25223 8.08904 9.14107 7.97798 9.06458L7.92586 9.0332C7.89121 9.00544 7.83559 8.97596 7.75929 8.94455C7.68288 8.91317 7.60315 8.89067 7.51977 8.87682L4.66657 8.89757C4.37501 8.89757 4.17718 8.96372 4.07302 9.09585L4.03133 9.15835C4.0105 9.19316 4 9.24876 4 9.32529C4 9.40178 4.02083 9.49566 4.06251 9.60682C4.47903 10.5873 4.93198 11.5328 5.42137 12.4436C5.91075 13.3544 6.33602 14.0881 6.69692 14.644C7.05789 15.2003 7.42582 15.7254 7.80072 16.2189C8.17562 16.7125 8.42378 17.0289 8.5452 17.1679C8.66676 17.3072 8.76224 17.4113 8.83165 17.4808L9.09203 17.731C9.25863 17.8979 9.50329 18.0978 9.82611 18.3307C10.149 18.5637 10.5065 18.7931 10.8987 19.0193C11.291 19.2451 11.7474 19.4293 12.2681 19.5718C12.7887 19.7145 13.2955 19.7717 13.7884 19.7441H14.9859C15.2288 19.7231 15.4128 19.6466 15.5379 19.5146L15.5793 19.4623C15.6072 19.4208 15.6333 19.3563 15.6573 19.2696C15.6817 19.1827 15.6938 19.0869 15.6938 18.9828C15.6867 18.6839 15.7094 18.4145 15.7613 18.1746C15.8132 17.9348 15.8724 17.7541 15.9386 17.6323C16.0047 17.5107 16.0793 17.408 16.1624 17.3248C16.2456 17.2414 16.3049 17.1909 16.3397 17.1735C16.3743 17.156 16.4019 17.1441 16.4227 17.137C16.5893 17.0814 16.7854 17.1353 17.0112 17.2988C17.2369 17.4622 17.4485 17.6639 17.6465 17.9037C17.8444 18.1437 18.0821 18.413 18.3597 18.7119C18.6375 19.0109 18.8804 19.2332 19.0886 19.3794L19.2968 19.5046C19.4358 19.5881 19.6163 19.6646 19.8385 19.7341C20.0603 19.8036 20.2546 19.8209 20.4215 19.7862L23.0872 19.7446C23.3508 19.7446 23.556 19.7008 23.7015 19.6141C23.8473 19.5272 23.9339 19.4314 23.9619 19.3273C23.9897 19.223 23.9912 19.1048 23.9672 18.9725C23.9425 18.8406 23.9181 18.7484 23.8939 18.6963Z" fill="white"/>
</svg>
