<svg width="40" height="40" viewBox="0 0 40 40" fill="none" xmlns="http://www.w3.org/2000/svg">
<rect width="40" height="40" rx="10" fill="url(#paint0_linear)"/>
<path d="M24.5471 8.75H15.4529C11.7569 8.75 8.75 11.7569 8.75 15.4529V24.5471C8.75 28.2431 11.7569 31.25 15.4529 31.25H24.5471C28.2431 31.25 31.25 28.2431 31.25 24.5471V15.4529C31.25 11.7569 28.2431 8.75 24.5471 8.75ZM28.9865 24.5471C28.9865 26.9989 26.9989 28.9865 24.5471 28.9865H15.4529C13.0011 28.9865 11.0135 26.9989 11.0135 24.5471V15.4529C11.0135 13.0011 13.0011 11.0135 15.4529 11.0135H24.5471C26.9989 11.0135 28.9865 13.0011 28.9865 15.4529V24.5471Z" fill="white"/>
<path d="M20 14C16.6916 14 14 16.6916 14 20C14 23.3084 16.6916 26 20 26C23.3084 26 26 23.3084 26 20C26 16.6916 23.3084 14 20 14ZM20 23.6662C17.9752 23.6662 16.3338 22.0248 16.3338 20C16.3338 17.9752 17.9752 16.3338 20 16.3338C22.0248 16.3338 23.6662 17.9752 23.6662 20C23.6662 22.0248 22.0248 23.6662 20 23.6662Z" fill="white"/>
<path d="M26.375 14.75C26.9963 14.75 27.5 14.2463 27.5 13.625C27.5 13.0037 26.9963 12.5 26.375 12.5C25.7537 12.5 25.25 13.0037 25.25 13.625C25.25 14.2463 25.7537 14.75 26.375 14.75Z" fill="white"/>
<defs>
<linearGradient id="paint0_linear" x1="40" y1="1.62257e-06" x2="-5.06356" y2="33.1079" gradientUnits="userSpaceOnUse">
<stop stop-color="#FBB75D"/>
<stop offset="1" stop-color="#CB5272"/>
</linearGradient>
</defs>
</svg>
