<svg width="40" height="40" viewBox="0 0 40 40" fill="none" xmlns="http://www.w3.org/2000/svg">
<rect width="40" height="40" rx="10" fill="#436EAB"/>
<path d="M31.8727 25.6355C31.8437 25.5728 31.8166 25.5207 31.7914 25.4791C31.375 24.728 30.5793 23.806 29.4047 22.713L29.3799 22.688L29.3675 22.6757L29.3549 22.6631H29.3423C28.8092 22.1541 28.4716 21.8119 28.3303 21.6367C28.0716 21.303 28.0137 20.9651 28.155 20.6228C28.2549 20.3642 28.6301 19.818 29.2797 18.9835C29.6213 18.5413 29.892 18.1868 30.0918 17.9198C31.5331 16.0007 32.1579 14.7744 31.9662 14.2403L31.8918 14.1155C31.8418 14.0404 31.7127 13.9717 31.5046 13.909C31.2961 13.8464 31.0296 13.8361 30.7047 13.8778L27.106 13.9027C27.0477 13.882 26.9644 13.8839 26.856 13.909C26.7477 13.9341 26.6935 13.9467 26.6935 13.9467L26.6308 13.978L26.5811 14.0156C26.5395 14.0405 26.4936 14.0843 26.4436 14.1469C26.3938 14.2093 26.3522 14.2825 26.319 14.3659C25.9272 15.3755 25.4817 16.3141 24.9817 17.1818C24.6735 17.6992 24.3904 18.1476 24.1319 18.5272C23.8737 18.9067 23.6571 19.1864 23.4823 19.3656C23.3072 19.545 23.1492 19.6887 23.0073 19.7973C22.8657 19.9059 22.7575 19.9518 22.6826 19.9351C22.6076 19.9183 22.5369 19.9016 22.47 19.8849C22.3534 19.8098 22.2597 19.7076 22.189 19.5783C22.118 19.449 22.0702 19.2863 22.0452 19.0902C22.0203 18.894 22.0056 18.7252 22.0014 18.5833C21.9975 18.4416 21.9993 18.2411 22.0078 17.9825C22.0164 17.7238 22.0203 17.5487 22.0203 17.4569C22.0203 17.1398 22.0265 16.7956 22.0389 16.4244C22.0515 16.0531 22.0617 15.7589 22.0702 15.5422C22.0787 15.3253 22.0827 15.0957 22.0827 14.8538C22.0827 14.6118 22.068 14.422 22.0389 14.2843C22.0102 14.1468 21.9661 14.0132 21.908 13.8838C21.8496 13.7545 21.7641 13.6544 21.6519 13.5834C21.5394 13.5125 21.3996 13.4562 21.2333 13.4144C20.7917 13.3143 20.2294 13.2602 19.5462 13.2518C17.9968 13.2351 17.0012 13.3353 16.5597 13.5523C16.3848 13.6439 16.2265 13.7692 16.0849 13.9276C15.9349 14.1112 15.914 14.2114 16.0223 14.2279C16.5222 14.3029 16.8761 14.4823 17.0844 14.766L17.1595 14.9163C17.2178 15.0247 17.2761 15.2167 17.3345 15.492C17.3927 15.7673 17.4303 16.0718 17.4469 16.4054C17.4885 17.0146 17.4885 17.536 17.4469 17.9698C17.4052 18.4038 17.3658 18.7416 17.3282 18.9836C17.2906 19.2255 17.2344 19.4216 17.1595 19.5718C17.0844 19.7219 17.0345 19.8137 17.0094 19.847C16.9844 19.8803 16.9636 19.9013 16.9471 19.9096C16.8388 19.9511 16.7262 19.9723 16.6096 19.9723C16.4929 19.9723 16.3513 19.9138 16.1848 19.797C16.0182 19.6801 15.8454 19.5196 15.6663 19.3151C15.4871 19.1107 15.2851 18.8249 15.0601 18.4578C14.8353 18.0907 14.602 17.6569 14.3604 17.1563L14.1605 16.7933C14.0355 16.5597 13.8649 16.2197 13.6483 15.7734C13.4315 15.3269 13.24 14.8951 13.0734 14.4779C13.0068 14.3027 12.9068 14.1693 12.7736 14.0775L12.711 14.0398C12.6695 14.0065 12.6027 13.9712 12.5111 13.9335C12.4195 13.8958 12.3238 13.8688 12.2237 13.8522L8.79988 13.8771C8.45001 13.8771 8.21262 13.9565 8.08762 14.115L8.0376 14.19C8.0126 14.2318 8 14.2985 8 14.3903C8 14.4821 8.02499 14.5948 8.07502 14.7282C8.57483 15.9047 9.11838 17.0394 9.70564 18.1323C10.2929 19.2253 10.8032 20.1057 11.2363 20.7728C11.6695 21.4404 12.111 22.0704 12.5609 22.6626C13.0107 23.2551 13.3085 23.6347 13.4542 23.8015C13.6001 23.9686 13.7147 24.0935 13.798 24.1769L14.1104 24.4773C14.3104 24.6775 14.6039 24.9174 14.9913 25.1968C15.3788 25.4765 15.8078 25.7518 16.2784 26.0231C16.7492 26.2941 17.2968 26.5152 17.9217 26.6862C18.5465 26.8574 19.1546 26.926 19.7461 26.8929H21.1831C21.4746 26.8677 21.6954 26.7759 21.8455 26.6175L21.8952 26.5548C21.9286 26.505 21.9599 26.4276 21.9888 26.3235C22.018 26.2192 22.0326 26.1043 22.0326 25.9793C22.024 25.6206 22.0513 25.2974 22.1136 25.0095C22.1759 24.7218 22.2469 24.5049 22.3263 24.3588C22.4056 24.2128 22.4952 24.0896 22.5948 23.9898C22.6947 23.8897 22.7659 23.8291 22.8076 23.8082C22.8491 23.7872 22.8822 23.773 22.9072 23.7644C23.1072 23.6977 23.3425 23.7623 23.6135 23.9586C23.8842 24.1546 24.1382 24.3967 24.3758 24.6845C24.6132 24.9725 24.8985 25.2956 25.2317 25.6543C25.565 26.0131 25.8565 26.2798 26.1063 26.4553L26.3562 26.6055C26.523 26.7057 26.7396 26.7975 27.0062 26.8809C27.2724 26.9643 27.5056 26.9851 27.7058 26.9434L30.9046 26.8935C31.221 26.8935 31.4672 26.841 31.6418 26.7369C31.8168 26.6326 31.9207 26.5177 31.9543 26.3928C31.9877 26.2676 31.9895 26.1257 31.9606 25.967C31.931 25.8087 31.9018 25.6981 31.8727 25.6355Z" fill="white"/>
</svg>
